<svg data-name="レイヤー 1" xmlns="http://www.w3.org/2000/svg" width="217" height="22" viewBox="0 0 217 22"><path d="M178.731 15.797c0 1.743-.655 2.219-1.72 2.219a3.37 3.37 0 01-1.286-.24l-.308 1.455a4.94 4.94 0 001.794.32c2.02 0 3.388-.923 3.388-3.696v-6.51h-1.868zM87.716 9.345h1.831v10.043h-1.831zm7.859 2.622a2.663 2.663 0 00-2.324 1.251h-.044l-.09-1.087h-1.593c.029.626.058 1.325.058 2.16v5.097h1.833V15.11a1.706 1.706 0 01.089-.583 1.54 1.54 0 011.43-1.072c1.001 0 1.387.792 1.387 1.833v4.099h1.832V15.08c0-2.294-1.312-3.113-2.578-3.113zm7.153 3.086c-.926-.344-1.266-.553-1.266-1.015 0-.447.357-.775 1.013-.775a3.221 3.221 0 011.535.417l.373-1.282a4.233 4.233 0 00-1.938-.43c-1.683 0-2.742.983-2.742 2.265 0 .862.581 1.637 1.997 2.116.894.326 1.191.565 1.191 1.056 0 .477-.354.82-1.162.82a3.997 3.997 0 01-1.848-.534l-.37 1.34a4.68 4.68 0 002.203.506c1.923 0 2.953-.955 2.953-2.28-.014-1.074-.613-1.744-1.939-2.204zm7.537-3.086a2.825 2.825 0 00-2.488 1.28h-.031l-.092-1.116h-1.607c.031.685.06 1.46.06 2.413V22h1.834v-3.418h.028a2.383 2.383 0 002.042.969c1.654 0 3.308-1.268 3.308-3.889 0-2.265-1.385-3.695-3.054-3.695zm-.658 6.168a1.675 1.675 0 01-1.622-1.281 2.806 2.806 0 01-.044-.505V15.23a2.38 2.38 0 01.06-.463 1.736 1.736 0 011.652-1.353c1.177 0 1.803 1.042 1.803 2.323 0 1.43-.684 2.398-1.849 2.398zm6.219-9.029a.992.992 0 101.03 1 .977.977 0 00-1.03-1zm-.924 3.025h1.835v7.257h-1.835zm5.463 1.371h-.044l-.074-1.371h-1.58c.045.64.06 1.356.06 2.34v4.917h1.833v-3.772a3.209 3.209 0 01.044-.55 1.613 1.613 0 011.638-1.386 3.085 3.085 0 01.553.043v-1.712a1.946 1.946 0 00-.432-.044 2.171 2.171 0 00-1.998 1.535zm9.155 1.535c0-1.595-.672-3.07-2.997-3.07a5.21 5.21 0 00-2.622.642l.358 1.19a3.84 3.84 0 011.953-.536c1.281 0 1.473.79 1.473 1.265v.12c-2.683-.014-4.304.924-4.304 2.743a2.152 2.152 0 002.28 2.16 2.647 2.647 0 002.142-.97h.047l.133.807h1.655a9.875 9.875 0 01-.117-1.744zm-1.789 1.801a1.192 1.192 0 01-.046.403 1.502 1.502 0 01-1.445.999.962.962 0 01-1.043-1.042c0-1.104 1.237-1.373 2.534-1.357zm5.775-6.57l-1.804.506v1.357h-1.03v1.371h1.03v3.412a2.858 2.858 0 00.581 2.042 2.105 2.105 0 001.582.595 4.017 4.017 0 001.324-.194l-.03-1.385a2.397 2.397 0 01-.716.075c-.698 0-.937-.448-.937-1.341v-3.204h1.745v-1.371h-1.745zm3.35 1.863h1.833v7.257h-1.833zm.924-3.025a.982.982 0 00-1.03 1 1.031 1.031 0 002.06 0 .983.983 0 00-1.03-1zm5.946 2.861a3.58 3.58 0 00-3.753 3.844 3.508 3.508 0 003.633 3.74 3.595 3.595 0 003.727-3.86 3.482 3.482 0 00-3.607-3.724zm-.059 6.259c-1.1 0-1.802-1.058-1.802-2.458 0-1.209.52-2.475 1.819-2.475 1.25 0 1.757 1.311 1.757 2.444 0 1.474-.73 2.489-1.774 2.489zm8.92-6.259a2.667 2.667 0 00-2.325 1.251h-.042l-.091-1.087h-1.593c.03.626.058 1.325.058 2.16v5.097h1.832V15.11a1.704 1.704 0 01.09-.583 1.54 1.54 0 011.43-1.072c1 0 1.388.792 1.388 1.833v4.099h1.832V15.08c0-2.294-1.312-3.113-2.58-3.113zm10.539 0a3.58 3.58 0 00-3.754 3.844 3.507 3.507 0 003.634 3.74 3.595 3.595 0 003.725-3.86 3.48 3.48 0 00-3.605-3.724zm-.062 6.259c-1.1 0-1.804-1.058-1.804-2.458 0-1.209.524-2.475 1.822-2.475 1.25 0 1.755 1.311 1.755 2.444 0 1.474-.726 2.489-1.773 2.489zm6.418-8.881a3.382 3.382 0 00-.88 2.473v.313h-.984v1.371h.984v5.886h1.832v-5.886H172v-1.371h-1.58v-.373c0-.894.298-1.652 1.209-1.652a2.255 2.255 0 01.788.13l.12-1.413a3.821 3.821 0 00-1.163-.18 2.742 2.742 0 00-1.892.702zm28.392.745a4.65 4.65 0 00-3.007-.821 17.769 17.769 0 00-2.937.21v9.909h1.853v-3.642a5.014 5.014 0 00.991.074 4.6 4.6 0 003.237-1.087 3.217 3.217 0 00.867-2.345 2.977 2.977 0 00-1.004-2.298zm-3.1 4.3a3.856 3.856 0 01-.991-.09v-3.526a6.33 6.33 0 011.157-.09c1.292 0 2.084.662 2.084 1.778 0 1.162-.851 1.927-2.25 1.927zm20.198-5.045v7.374l-4.086-7.374h-2.225v10.043h1.792v-7.584l4.239 7.584h2.024V9.345h-1.744zm-30.032 0l-3.487 10.043h1.943l.847-2.63h3.727c.474 1.468.847 2.63.847 2.63h2.023l-3.487-10.043zm-.228 5.95c.655-2.036 1.32-4.122 1.393-4.411.076.289.742 2.375 1.395 4.412zm17.043-5.95l-3.487 10.043h1.944s.376-1.162.843-2.63h3.734c.47 1.468.844 2.63.844 2.63h2.023l-3.488-10.043zm-.224 5.95c.65-2.036 1.317-4.122 1.394-4.411.072.289.738 2.375 1.39 4.412zM17.027 22L15.811 4.264H9.943L0 22h3.035l7.982-14.238v.002a.395.395 0 01.733.138l.552 8.044a.798.798 0 01-.795.768H6.642l-1.388 2.567h6.592l.002.004a.73.73 0 01.73.73l.003.001.136 1.984zm33.266 0L48.716 4.264h-5.742L33.925 22h2.917l7.212-14.06v.002a.368.368 0 01.325-.199.396.396 0 01.383.336l.7 7.867a.702.702 0 01-.748.768h-4.509l-1.275 2.567h6.11l.003.004a.756.756 0 01.772.787h.003L46 22zM33.666 4.264l-2.381 13.768a.307.307 0 01-.587-.003L26.75 4.264h-5.984L17.7 22h2.651l2.371-13.711.002.019a.325.325 0 01.625-.026L27.281 22h5.969l3.067-17.736zm29.409-2.583L51.517 22H64.6L76.158 1.681H63.075z" fill="#0b308e"/><path fill="#00a6e9" d="M76.158 1.681L64.6 22h3.268L79.426 1.681h-3.268z"/></svg>