<svg data-name="レイヤー 1" xmlns="http://www.w3.org/2000/svg" width="189" height="255" viewBox="0 0 189 255"><path fill="#d9d9d9" d="M0 255h56.145l13.302-23.113H23.143V119.352h33.002L69.447 96.24H0V255zM189 96.24h-56.145l-13.302 23.112h46.304v112.535h-33.002L119.553 255H189V96.24zM126.864 1.882h-10.365V0h22.99v1.882h-10.364v29.83h-2.261zM145.002 0v13.927h17.525V0h2.214v31.712h-2.214V15.856h-17.525v15.856h-2.214V0zm42.399 15.95h-12.72v13.88h14.228v1.882h-16.441V0h15.687v1.882h-13.473v12.186h12.72zM37.804 32.37a61.276 61.276 0 0111.277-.945c6.28 0 10.332 1.147 13.168 3.71a11.314 11.314 0 013.579 8.632c0 6.002-3.782 9.98-8.576 11.6v.201c3.511 1.214 5.605 4.451 6.685 9.172 1.486 6.34 2.566 10.723 3.511 12.476h-6.077c-.743-1.348-1.756-5.193-3.039-10.857-1.35-6.272-3.781-8.632-9.116-8.835H43.68v19.692h-5.875zm5.875 20.703h6.01c6.28 0 10.264-3.44 10.264-8.632 0-5.867-4.254-8.43-10.467-8.497a24.218 24.218 0 00-5.807.539zm58.073 7.553c0 12.072-8.374 17.332-16.274 17.332-8.846 0-15.666-6.474-15.666-16.792 0-10.925 7.158-17.332 16.206-17.332 9.386 0 15.734 6.811 15.734 16.792zm-25.93.338c0 7.148 4.12 12.543 9.926 12.543 5.672 0 9.927-5.328 9.927-12.678 0-5.53-2.769-12.544-9.792-12.544-7.022 0-10.061 6.474-10.061 12.679zm60.976-.338c0 12.072-8.373 17.332-16.274 17.332-8.846 0-15.666-6.474-15.666-16.792 0-10.925 7.158-17.332 16.206-17.332 9.386 0 15.734 6.811 15.734 16.792zm-25.93.338c0 7.148 4.119 12.543 9.926 12.543 5.672 0 9.927-5.328 9.927-12.678 0-5.53-2.77-12.544-9.792-12.544-7.023 0-10.061 6.474-10.061 12.679zm31.4-7.554c0-3.371-.068-6.137-.27-8.834h5.2l.27 5.26h.202a11.267 11.267 0 0110.264-6.002 9.66 9.66 0 019.25 6.541h.136a13.456 13.456 0 013.646-4.248 11.165 11.165 0 017.226-2.293c4.322 0 10.736 2.832 10.736 14.162v19.22h-5.807V58.738c0-6.272-2.296-10.048-7.09-10.048a7.691 7.691 0 00-7.023 5.395 9.758 9.758 0 00-.472 2.967v20.164h-5.808V57.66c0-5.193-2.296-8.97-6.82-8.97-3.714 0-6.415 2.968-7.36 5.935a8.17 8.17 0 00-.473 2.9v19.692h-5.807z"/></svg>