<svg xmlns="http://www.w3.org/2000/svg" width="43" height="8" viewBox="0 0 43 8"><path data-name="SCROLL" d="M6.2 5.6c0-1.119-.58-1.4-2.109-2-1.439-.56-1.859-.72-1.859-1.219 0-.47.38-.62 1.409-.62a11.119 11.119 0 012.189.25L6.02.982a9.92 9.92 0 00-2.4-.32c-1.8 0-2.659.57-2.659 1.749 0 1.109.67 1.519 2.269 2.119 1.339.5 1.7.65 1.7 1.109 0 .53-.55.81-1.489.81a7.707 7.707 0 01-2.459-.46l-.28.989a7.459 7.459 0 002.758.55C5.083 7.532 6.2 6.783 6.2 5.6zm7.11 1.639l-.25-1.019a4.916 4.916 0 01-1.429.18 2.265 2.265 0 01-2.576-2.306c0-1.359.9-2.3 2.579-2.3a5.515 5.515 0 011.429.19l.25-1.049a5.363 5.363 0 00-1.839-.27 3.443 3.443 0 100 6.866 5.3 5.3 0 001.839-.288zm8.5.18l-1.989-2.7a1.989 1.989 0 001.3-1.879A2.075 2.075 0 0018.974.766h-3.468v6.657h1.279V4.9h1.629l1.829 2.519h1.569zm-2-4.577A1.026 1.026 0 0118.744 3.9h-1.959V1.8h1.959a1.027 1.027 0 011.069 1.045zm9.8 1.259a3.33 3.33 0 10-6.656 0 3.33 3.33 0 106.658-.001zm-1.269 0a2.067 2.067 0 11-4.108 0 2.068 2.068 0 114.11-.001zm7.87 3.318v-1.1h-3.276V.766h-1.279v6.657h4.557zm6.4 0v-1.1h-3.276V.766h-1.279v6.657h4.557z" fill="#fff" fill-rule="evenodd"/></svg>